<?xml version="1.0" encoding="UTF-8"?>
<svg id="Layer_1" data-name="Layer 1" xmlns="http://www.w3.org/2000/svg" viewBox="0 0 38.25 38.25">
  <defs>
    <style>
      .cls-1 {
        fill: #78b015;
      }

      .cls-2 {
        fill: #febe27;
      }

      .cls-3 {
        fill: #07aade;
      }

      .cls-4 {
        fill: #092b55;
      }
    </style>
  </defs>
  <g>
    <path class="cls-4" d="M18.82,19.53l-13.72-7.66.23-3.46L18.71.83l11.96,6.74c.51.29,1.41,1.32,1.7,1.82.36.62-.32,2.58-.97,2.95l-12.58,7.19ZM18.94,16.22l10.1-6.18-10.38-6.03-10.4,6.12,10.68,6.08Z"/>
    <path class="cls-3" d="M31.81,17.9l-12.9,7.36-13.36-7.33c-.14-.84-.09-2.67.07-3.59l13.16,7.44,12.97-7.42c.35.37.61,3.14.06,3.54Z"/>
  </g>
  <g>
    <path class="cls-2" d="M30.45,30.32l-11.71,6.4-12.85-7.19c-.8-.45-.76-3.45-.38-3.87l13.31,7.64,13.19-7.69c.78,1.65.1,3.81-1.56,4.71Z"/>
    <path class="cls-1" d="M30.22,24.55l-11.4,6.49-11.19-6.34c-.71-.4-2.04-.68-2.18-1.26s-.13-1.81-.14-3.52l13.36,7.61,13.5-7.55c.58,2.91-.22,3.59-1.95,4.58Z"/>
  </g>
</svg>